<?xml version="1.0" encoding="UTF-8" standalone="no"?>
<!-- Created with Inkscape (http://www.inkscape.org/) -->

<svg
   width="202.83434mm"
   height="165.00323mm"
   viewBox="0 0 202.83434 165.00323"
   version="1.1"
   id="svg1"
   xml:space="preserve"
   sodipodi:docname="Logo Demiverso Line Arte.svg"
   inkscape:version="1.4.2 (f4327f4, 2025-05-13)"
   xmlns:inkscape="http://www.inkscape.org/namespaces/inkscape"
   xmlns:sodipodi="http://sodipodi.sourceforge.net/DTD/sodipodi-0.dtd"
   xmlns="http://www.w3.org/2000/svg"
   xmlns:svg="http://www.w3.org/2000/svg"><sodipodi:namedview
     id="namedview1"
     pagecolor="#ffffff"
     bordercolor="#000000"
     borderopacity="0.25"
     inkscape:showpageshadow="2"
     inkscape:pageopacity="0.0"
     inkscape:pagecheckerboard="0"
     inkscape:deskcolor="#d1d1d1"
     inkscape:document-units="mm"
     inkscape:zoom="1.2395085"
     inkscape:cx="482.85267"
     inkscape:cy="350.54216"
     inkscape:window-width="1920"
     inkscape:window-height="991"
     inkscape:window-x="-9"
     inkscape:window-y="-9"
     inkscape:window-maximized="1"
     inkscape:current-layer="layer1" /><defs
     id="defs1"><linearGradient
       id="swatch6406"
       inkscape:swatch="solid"><stop
         style="stop-color:#000000;stop-opacity:1;"
         offset="0"
         id="stop6406" /></linearGradient></defs><g
     id="layer1"
     transform="translate(-225.70216,-22.124433)"><path
       style="fill:#000000"
       d="m 338.07252,163.04049 c -10.57893,-1.34442 -18.34731,-4.11614 -26.2563,-9.36815 -3.81394,-2.53266 -5.72992,-4.13086 -9.22607,-7.69584 -4.62557,-4.71665 -8.29558,-10.01215 -11.24506,-16.22565 -1.30215,-2.74316 -3.15102,-8.0514 -3.657,-10.49947 -0.3865,-1.87005 -0.49463,-2.37888 -1.00177,-4.71407 -0.65435,-3.01301 -0.64289,-13.67228 0.0189,-17.594786 0.62992,-3.73358 1.53895,-7.39882 2.56853,-10.356471 1.078,-3.09672 4.1259,-9.340228 5.89106,-12.067611 4.07145,-6.290853 10.30627,-12.586067 16.31707,-16.475133 7.74882,-5.01358 14.41187,-7.481065 24.29406,-8.996659 4.84397,-0.742902 4.42214,-0.0217 -1.328,2.270467 -0.68382,0.272591 -2.46976,1.109151 -3.96875,1.859022 -11.46054,5.733155 -19.62334,14.661334 -24.17145,26.437882 -3.41137,8.833173 -4.1096,20.017863 -1.82177,29.182139 3.47624,13.92456 13.14887,25.94687 25.91362,32.20855 2.20606,1.08218 4.42702,1.97747 8.20208,3.30635 0.29105,0.10245 -0.0804,-0.23717 -0.82554,-0.75471 -3.45168,-2.39757 -5.92133,-7.06387 -5.92133,-11.18812 0,-1.79281 0.8514,-5.03828 2.10952,-8.04134 1.39356,-3.32633 1.84722,-5.49305 1.74504,-8.33437 -0.0873,-2.42719 -0.9079,-4.1195 -3.33571,-6.87917 -5.67966,-6.456 -5.40956,-13.090416 0.78095,-19.182286 1.67462,-1.64793 5.45422,-4.446671 5.68859,-4.212301 0.0618,0.0618 -0.90541,0.94551 -2.1493,1.963871 -4.37661,3.58308 -6.70899,7.13581 -7.15915,10.90498 -0.39406,3.299426 0.4128,5.429696 3.51513,9.280566 2.30904,2.86618 2.89732,3.92843 3.43235,6.19778 0.8545,3.62437 0.45656,6.46939 -1.65474,11.83037 -1.09907,2.79075 -1.21608,3.30801 -1.32625,5.86317 -0.19433,4.50723 0.9082,7.32667 3.98951,10.20214 2.92386,2.72856 6.38403,3.8982 9.83861,3.32576 3.19639,-0.52966 5.50806,-2.168 6.97183,-4.94114 0.62002,-1.17465 0.70466,-1.63689 0.70466,-3.84853 0,-2.81506 -0.36641,-3.71943 -2.13666,-5.27373 -2.7325,-2.39917 -6.55554,-2.02695 -7.98365,0.7773 -0.96052,1.88609 -0.60956,4.57455 0.68781,5.26888 0.78773,0.42158 2.10199,0.34797 2.97294,-0.16651 0.5809,-0.34314 0.83993,-0.37828 1.07269,-0.14552 0.23277,0.23277 0.0721,0.54165 -0.66543,1.27917 -0.91672,0.91672 -1.04869,0.96496 -2.30836,0.84393 -2.47141,-0.23748 -3.81105,-1.98361 -3.80898,-4.96477 0.002,-2.95954 1.67628,-4.97893 4.81329,-5.8056 0.88146,-0.23228 1.49362,-0.20541 2.96984,0.13035 5.57104,1.2671 7.7745,8.00261 4.4428,13.58071 -0.93111,1.5589 -2.79332,3.12125 -4.83085,4.05294 -1.14772,0.52481 -1.72245,0.59735 -4.61815,0.58292 -3.52481,-0.0176 -5.42406,-0.40847 -11.05929,-2.27626 -4.82306,-1.59859 -11.67253,-5.59898 -15.87129,-9.26952 -9.21704,-8.05751 -15.65619,-20.48351 -16.96872,-32.74554 -0.64064,-5.985076 0.0422,-13.426046 1.78506,-19.451747 3.76579,-13.01975 13.20035,-24.5658 24.88683,-30.456586 1.25315,-0.631672 2.13971,-1.150239 1.97014,-1.152372 -0.16958,-0.0021 -2.07458,0.603534 -4.23334,1.345926 -8.62152,2.964918 -16.19514,7.606206 -22.18034,13.592618 -8.10643,8.108073 -13.01744,17.398004 -15.17922,28.713825 -0.89327,4.6758 -1.17458,8.273656 -1.00334,12.832296 0.0875,2.32833 0.22444,4.59052 0.3044,5.02708 0.08,0.43656 0.20185,1.09141 0.27087,1.45521 0.069,0.3638 0.19539,1.12303 0.28081,1.68717 0.95976,6.33831 4.60652,15.17542 8.85737,21.46387 9.78789,14.47957 27.33224,23.96771 44.96506,24.31749 6.12606,0.12152 5.438,0.44307 9.57316,-4.47374 5.10422,-6.06904 6.33857,-7.73156 7.69392,-10.3628 2.02015,-3.92185 2.44776,-5.6876 2.42413,-10.01012 -0.017,-3.11242 -0.11201,-3.95353 -0.59468,-5.26512 -1.16263,-3.15927 -2.36939,-4.86517 -6.26711,-8.85932 -4.88658,-5.00746 -7.51805,-8.09728 -8.52117,-10.00541 -1.62256,-3.08639 -2.4593,-6.40291 -2.45211,-9.71926 0.005,-2.40528 0.40032,-3.127706 0.6432,-1.17605 0.34024,2.73397 0.98483,5.9333 1.50992,7.49422 0.88292,2.62462 2.39186,4.5525 8.82314,11.2727 l 2.16531,2.26259 -0.99686,-2.1303 c -1.71988,-3.67544 -2.12186,-5.68899 -2.28678,-11.45491 -0.1524,-5.32782 0.011,-7.11783 1.04469,-11.445176 0.29548,-1.23693 0.5221,-2.71962 0.50362,-3.29487 -0.049,-1.52558 -1.36782,-4.0176 -3.08206,-5.8239 -2.59839,-2.737921 -3.74836,-5.876941 -3.45821,-9.439655 0.0906,-1.112082 0.29328,-2.390873 0.45046,-2.841758 0.25672,-0.736431 0.33651,-0.784256 0.78471,-0.470329 0.73513,0.514905 2.20666,2.519932 3.25928,4.440901 1.03341,1.88592 1.88006,4.79565 2.14115,7.358641 0.19141,1.87895 0.95272,3.74711 1.13898,2.79493 0.31469,-1.60871 1.69481,-4.989561 3.56076,-8.722711 l 2.11169,-4.224794 -0.62571,-0.390507 c -1.29434,-0.807793 -3.40526,-3.216338 -4.20175,-4.794169 -1.49162,-2.954896 -1.89989,-5.105575 -2.04488,-10.772173 -0.11532,-4.506565 -0.0781,-5.171561 0.32407,-5.785303 0.42286,-0.645367 0.54764,-0.681079 1.7995,-0.515014 2.7177,0.360517 5.59286,2.402158 6.72437,4.77496 0.50118,1.050987 0.76494,1.15998 1.00172,0.413945 0.26867,-0.846501 2.99511,-3.152569 4.12885,-3.492245 2.2879,-0.68547 4.11774,0.601347 4.03129,2.834964 -0.0249,0.644602 -0.01,1.172004 0.0338,1.172004 0.0435,0 0.77859,-0.309969 1.63344,-0.688821 2.04226,-0.905085 3.8427,-0.975491 4.6376,-0.181351 0.97869,0.977762 0.97434,3.134133 -0.0124,6.123076 -1.92323,5.825944 -5.21563,9.158962 -11.13312,11.270493 -1.08721,0.387947 -2.7252,0.775249 -3.63997,0.860672 l -1.66321,0.155314 -1.71704,3.404389 c -0.94436,1.87241 -2.0223,4.14706 -2.3954,5.05479 -0.69183,1.683121 -3.91747,13.945417 -3.72027,14.142617 0.0597,0.0597 0.28907,-0.25357 0.50981,-0.69606 0.78488,-1.573326 6.07425,-8.510916 7.15452,-9.383936 2.83763,-2.29322 4.75249,-3.03636 8.39586,-3.25832 l 2.73473,-0.16661 -1.51673,1.69698 c -0.8342,0.93334 -2.26024,2.76521 -3.16898,4.07084 -1.81722,2.61089 -3.52702,4.08982 -5.65617,4.89244 -0.75236,0.28361 -2.62168,1.12499 -4.15405,1.869736 -4.0372,1.9621 -4.85768,2.99179 -4.73725,5.94521 0.0119,0.29104 0.0475,1.81228 0.0793,3.38053 0.11638,5.75299 1.48345,10.03443 5.35858,16.7822 0.51861,0.90305 1.33932,2.80805 1.82382,4.23334 0.85213,2.50681 0.8805,2.72534 0.86872,6.69247 -0.0109,3.68572 -0.0799,4.2953 -0.68096,6.01927 -0.36783,1.05502 -0.61766,1.91823 -0.55518,1.91823 0.0625,0 0.84516,-0.18519 1.73929,-0.41152 5.09035,-1.28855 11.09076,-3.97187 15.53002,-6.94486 7.36251,-4.9307 13.041,-11.54969 17.18218,-20.028 1.13727,-2.32833 2.2207,-4.67568 2.40764,-5.21633 0.18694,-0.54065 0.51223,-1.04914 0.72288,-1.12997 0.63893,-0.24518 0.27329,3.03287 -0.88496,7.9338 -2.6034,11.01588 -7.85375,20.25022 -15.80306,27.7945 -9.15,8.68378 -20.17022,13.93986 -32.73473,15.61278 -2.51325,0.33463 -10.26399,0.46124 -12.31094,0.20111 z m 16.07171,-2.35494 c 4.30983,-0.83925 8.90075,-2.34776 12.8398,-4.21897 12.95339,-6.15338 22.5215,-16.34554 27.87717,-29.69538 0.76869,-1.91607 3.13754,-8.76705 3.13228,-9.05889 -10e-4,-0.0728 -0.68884,1.23693 -1.52784,2.91042 -2.66073,5.30717 -5.40049,9.03842 -9.63504,13.12185 -6.358,6.13109 -13.60777,10.16778 -22.27455,12.4025 l -3.14981,0.81218 -1.29472,2.08642 c -1.31022,2.11139 -3.94446,5.41299 -7.87933,9.87549 -1.18692,1.34606 -2.03145,2.44739 -1.87673,2.44739 0.15472,0 1.85966,-0.30735 3.78877,-0.68301 z m 7.4762,-62.624636 c 1.45521,-0.64138 3.00302,-1.35441 3.43959,-1.58453 1.06097,-0.55924 2.99418,-2.61063 4.29819,-4.56094 0.58378,-0.87313 1.31403,-1.81432 1.62276,-2.09153 0.86123,-0.7733 0.68937,-0.89115 -0.9294,-0.6373 -1.91046,0.29959 -3.92334,1.29016 -5.59735,2.75454 -1.39505,1.22036 -6.51409,7.72606 -5.86044,7.44793 0.20945,-0.0891 1.57144,-0.68679 3.02665,-1.32817 z m -7.18042,-9.91579 c -0.55462,-4.055191 -1.81004,-7.546471 -3.40128,-9.458851 l -0.66046,-0.79375 -10e-4,1.86264 c -0.001,2.06862 0.5267,4.44248 1.24666,5.60316 0.45561,0.73452 2.79121,3.778991 2.89909,3.778991 0.0291,0 -0.008,-0.44648 -0.0827,-0.99219 z m 13.20804,-11.466417 c 6.04076,-2.027997 9.22437,-5.131984 11.15024,-10.871376 1.01044,-3.011265 0.83025,-4.684423 -0.51422,-4.77475 -2.26313,-0.152048 -9.71724,4.384885 -11.06694,6.735873 -0.35624,0.620529 -0.95841,2.47355 -1.33816,4.117823 -0.37974,1.644273 -0.86819,3.414985 -1.08543,3.934916 -0.21724,0.519931 -0.39498,1.049851 -0.39498,1.1776 0,0.404286 1.54519,0.252079 3.24949,-0.320086 z m -3.71246,-2.82108 c 0.89352,-3.05456 1.05028,-4.047032 1.01343,-6.416146 -0.0414,-2.658514 -0.55687,-4.705034 -1.63869,-6.505417 -1.2095,-2.012879 -2.81831,-3.388254 -4.53235,-3.874697 -0.76498,-0.217103 -1.40545,-0.381408 -1.42327,-0.365122 -0.0178,0.01629 -0.11039,1.421653 -0.20572,3.123036 -0.29514,5.267203 0.68103,10.421171 2.46483,13.013842 0.80058,1.163592 3.0257,3.339608 3.41499,3.339608 0.12626,0 0.53432,-1.041797 0.90678,-2.315104 z m 6.94165,-10.931666 c 1.40123,-0.927941 1.68795,-1.248928 1.81501,-2.031908 0.16745,-1.031861 -0.33806,-2.283304 -1.0295,-2.548634 -1.39562,-0.535548 -2.92663,0.155142 -4.40943,1.989233 -1.23542,1.528108 -1.59424,2.260108 -1.40309,2.862354 0.17117,0.5393 0.24237,0.890047 0.51897,2.556529 l 0.18095,1.090178 1.33149,-1.407859 c 0.73232,-0.774323 2.08035,-1.903775 2.9956,-2.509893 z"
       id="path6406" /></g></svg>
